:SAMPLES-PER-SECOND 30
:FULLY-SPECIFIED
:DEGREES
37
root  -2.91758 40.9222 0.847897 -172.901 -86.7684 172.955
RightUpLeg  3.50674 -1.1024 -1.82139
RightLeg  -0.834757 -16.2737 -0.477638
RightFoot  -1.40728 -0.310264 3.45621
RightToes  -3.13006e-008 1.75238e-005 3.56266e-009
Spine  -2.57956 0.674253 5.41683
Spine1  4.90076 2.20171 -8.24181
HEad  -13.7087 -7.80654 1.99396
LeftShoulder1  2.3222 -4.08402 -24.4004
LeftArm  -33.6346 24.1496 -54.8774
LeftForeArm  46.6525 -52.3683 -10.8439
LeftHand  -0.48421 -5.42606 5.50898
RightShoulder  0.695555 -0.202964 14.2451
RightArm  -77.7511 28.0537 8.93583
RightForeArm  -4.81065 71.6979 40.7981
RightHand  -1.28653 7.55405 -11.8661
LeftUpLeg  4.01798 0.756216 1.34022
LeftLeg  -2.18087 15.7992 -0.873988
LeftFoot  -1.04743 0.247915 -2.55396
LeftToes  4.76866e-008 1.46233e-008 1.30548e-009
38
root  -2.95744 40.9171 0.79635 -162.694 -87.9777 162.823
RightUpLeg  3.66813 -1.39199 -1.99763
RightLeg  -0.864881 -17.2999 -0.323763
RightFoot  -1.64228 -0.284834 3.22408
RightToes  -3.13006e-008 1.75238e-005 3.56266e-009
Spine  -3.12985 0.292434 4.23326
Spine1  5.38535 1.52554 -6.58665
HEad  -14.4034 -6.6084 -0.212719
LeftShoulder1  2.43781 -4.31809 -24.9949
LeftArm  -34.3964 24.3301 -55.2764
LeftForeArm  46.6618 -52.7092 -10.9999
LeftHand  -0.461051 -5.00892 5.44813
RightShoulder  0.935206 0.583611 16.2729
RightArm  -70.1937 23.6661 9.17112
RightForeArm  51.2429 77.8688 95.1344
RightHand  -0.944696 8.02026 -8.53625
LeftUpLeg  3.91745 0.594307 1.21381
LeftLeg  -2.32349 14.6905 -0.855419
LeftFoot  -0.967926 0.253479 -2.6284
LeftToes  4.76866e-008 1.46233e-008 1.30548e-009
39
root  -2.99253 40.9155 0.734529 -145.195 -88.733 145.299
RightUpLeg  3.85593 -1.49941 -2.01993
RightLeg  -0.81404 -18.048 -0.294129
RightFoot  -1.84436 -0.286281 3.29437
RightToes  -3.13006e-008 1.75238e-005 3.56266e-009
Spine  -3.30906 -0.00537864 3.14808
Spine1  5.75343 0.918018 -4.89964
HEad  -15.1887 -5.82141 -2.19504
LeftShoulder1  2.41186 -4.1731 -25.2522
LeftArm  -35.3653 24.7486 -56.4335
LeftForeArm  46.8933 -53.16 -11.1904
LeftHand  -0.482756 -4.96683 5.71135
RightShoulder  1.14914 1.25214 17.6399
RightArm  -61.3494 19.1267 8.95688
RightForeArm  101.283 69.2429 146.173
RightHand  -0.920386 8.98124 -7.78143
LeftUpLeg  3.98539 0.666567 1.28381
LeftLeg  -2.50824 13.7184 -0.971452
LeftFoot  -0.8344 0.251993 -2.59396
LeftToes  4.76866e-008 1.46233e-008 1.30548e-009
40
root  -3.00942 40.913 0.692322 -119.914 -89.1311 119.944
RightUpLeg  4.05062 -1.63977 -2.05894
RightLeg  -0.819219 -18.4956 -0.181735
RightFoot  -1.94593 -0.284485 3.29395
RightToes  -3.13006e-008 1.75238e-005 3.56266e-009
Spine  -3.7409 -0.175631 2.63036
Spine1  6.65177 0.59569 -4.01743
HEad  -15.5361 -4.65561 -3.36249
LeftShoulder1  2.35764 -4.03261 -25.1151
LeftArm  -35.8484 24.6203 -57.4008
LeftForeArm  46.7138 -52.7749 -11.0268
LeftHand  -0.472093 -4.82131 5.6644
RightShoulder  1.37449 1.95192 18.7609
RightArm  -52.3226 15.8273 7.91968
RightForeArm  121.871 57.8681 160.545
RightHand  -0.708121 9.76365 -5.84386
LeftUpLeg  4.04659 0.651573 1.2967
LeftLeg  -2.56407 13.1169 -0.92947
LeftFoot  -0.758083 0.250001 -2.55253
LeftToes  4.76866e-008 1.46233e-008 1.30548e-009
41
root  -3.01868 40.907 0.662417 -106.464 -89.2204 106.378
RightUpLeg  4.13839 -1.68548 -2.01748
RightLeg  -0.642483 -18.6673 -0.186805
RightFoot  -2.06969 -0.275602 3.17595
RightToes  -3.13006e-008 1.75238e-005 3.56266e-009
Spine  -3.99593 -0.11034 2.0202
Spine1  7.23746 0.462707 -2.96403
HEad  -16.327 -3.87522 -4.76442
LeftShoulder1  2.35927 -4.04419 -25.0622
LeftArm  -36.9144 24.339 -58.6591
LeftForeArm  47.397 -51.8743 -10.5699
LeftHand  -0.485478 -5.20807 5.62399
RightShoulder  1.53129 2.44915 19.3439
RightArm  -44.4593 14.7574 6.43134
RightForeArm  140.698 50.4156 165.829
RightHand  -0.225348 11.4617 -1.95403
LeftUpLeg  4.07068 0.683916 1.36214
LeftLeg  -2.36835 12.9048 -0.849464
LeftFoot  -0.893747 0.263709 -2.75638
LeftToes  4.76866e-008 1.46233e-008 1.30548e-009
